<?xml version="1.0" encoding="iso-8859-1"?>
<!-- Uploaded to: SVG Repo, www.svgrepo.com, Generator: SVG Repo Mixer Tools -->
<!DOCTYPE svg PUBLIC "-//W3C//DTD SVG 1.1//EN" "http://www.w3.org/Graphics/SVG/1.1/DTD/svg11.dtd">
<svg fill="#000000" height="800px" width="800px" version="1.1" id="Capa_1" xmlns="http://www.w3.org/2000/svg" xmlns:xlink="http://www.w3.org/1999/xlink" 
	 viewBox="0 0 430.401 430.401" xml:space="preserve">
<path id="XMLID_235_" d="M312.017,243.292c-18.005,0-32.654,14.648-32.654,32.653c0,18.005,14.648,32.654,32.654,32.654
	c18.006,0,32.654-14.648,32.654-32.654C344.671,257.94,330.022,243.292,312.017,243.292z M312.017,292.599
	c-9.183,0-16.654-7.471-16.654-16.654c0-9.182,7.471-16.653,16.654-16.653s16.654,7.471,16.654,16.653
	C328.671,285.128,321.2,292.599,312.017,292.599z M422.401,382.557c4.418,0,8-3.582,8-8s-3.582-8-8-8h-54.256
	c30.282-18.827,50.487-52.406,50.487-90.612c0-24.643-8.405-47.361-22.498-65.437V74.403c0-2.948-1.622-5.658-4.221-7.051
	l-34.621-18.559c-1.163-0.623-2.461-0.949-3.78-0.949h-25.072c-2.835,0-5.458,1.5-6.896,3.944l-53.86,91.559h-71.688l-1.021-15.838
	c-0.271-4.21-3.765-7.485-7.983-7.485h-38.121V83.139h18.444c4.418,0,8-3.582,8-8s-3.582-8-8-8h-26.247
	c-0.131-0.003-0.264-0.003-0.395,0h-26.246c-4.418,0-8,3.582-8,8s3.582,8,8,8h18.443v36.884H92.822
	c-25.96,0-37.404,22.573-44.475,42.239L33.3,204.117c-0.312,0.868-0.472,1.784-0.472,2.707v28.213
	C12.906,250.002,0,273.819,0,300.598c0,27.306,13.42,51.534,34.013,66.437c-3.075,1.115-5.272,4.063-5.272,7.523
	c0,4.418,3.582,8,8,8h148.114c4.418,0,8-3.582,8-8s-3.582-8-8-8h-54.292c20.223-14.94,33.359-38.944,33.359-65.959
	c0-45.193-36.767-81.96-81.959-81.96c-11.784,0-22.999,2.501-33.135,6.998v-17.418l0.556-1.545h20.22c4.418,0,8-3.582,8-8
	s-3.582-8-8-8H55.136l8.268-22.997c8.083-22.482,16.605-31.652,29.418-31.652h86.669l1.021,15.838
	c0.271,4.21,3.765,7.485,7.983,7.485h83.765c2.835,0,5.458-1.5,6.896-3.944l53.86-91.559h18.488l28.63,15.347v114.796
	c-18.486-15.39-42.24-24.657-68.118-24.657c-42.042,0-78.477,24.458-95.823,59.896H166.8c-4.418,0-8,3.582-8,8s3.582,8,8,8h43.113
	c-1.379,4.576-2.459,9.285-3.216,14.096H181.34c-4.418,0-8,3.582-8,8s3.582,8,8,8h24.065c-0.001,0.208-0.002,0.415-0.002,0.623
	c0,38.206,20.205,71.785,50.486,90.612h-11.846c-4.418,0-8,3.582-8,8s3.582,8,8,8H422.401z M81.963,234.638
	c36.37,0,65.959,29.589,65.959,65.96c0,36.203-29.317,65.687-65.455,65.959h-1.008C45.319,366.284,16,336.8,16,300.598
	C16,264.227,45.591,234.638,81.963,234.638z M312.608,366.557h-1.183c-49.692-0.321-90.022-40.846-90.022-90.612
	c0-49.965,40.649-90.614,90.614-90.614c49.966,0,90.616,40.649,90.616,90.614C402.633,325.711,362.301,366.236,312.608,366.557z
	 M81.963,333.252c18.004,0,32.652-14.649,32.652-32.654c0-18.005-14.647-32.653-32.652-32.653
	c-18.006,0-32.655,14.648-32.655,32.653C49.308,318.603,63.957,333.252,81.963,333.252z M81.963,283.945
	c9.182,0,16.652,7.47,16.652,16.653c0,9.183-7.47,16.654-16.652,16.654c-9.184,0-16.655-7.471-16.655-16.654
	C65.308,291.415,72.779,283.945,81.963,283.945z M320.017,336.219c0,4.418-3.582,8-8,8c-37.646,0-68.273-30.627-68.273-68.273
	c0-4.418,3.582-8,8-8s8,3.582,8,8c0,28.824,23.45,52.273,52.273,52.273C316.435,328.219,320.017,331.801,320.017,336.219z
	 M372.291,283.946c-4.418,0-8-3.582-8-8c0-28.824-23.45-52.273-52.274-52.273c-4.418,0-8-3.582-8-8s3.582-8,8-8
	c37.646,0,68.274,30.627,68.274,68.273C380.291,280.364,376.709,283.946,372.291,283.946z"/>
</svg>